<svg xmlns="http://www.w3.org/2000/svg" xmlns:xlink="http://www.w3.org/1999/xlink" width="4200" zoomAndPan="magnify" viewBox="0 0 3150 3599.999971" height="4800" preserveAspectRatio="xMidYMid meet" version="1.0"><defs><g/></defs><path fill="#ffbd59" d="M 1971.332031 1918.582031 C 1973.34375 1933.660156 1975.523438 1947.230469 1977.195312 1960.800781 C 1981.050781 1989.78125 1984.066406 2018.933594 1988.421875 2047.914062 C 1993.113281 2077.902344 1998.808594 2107.722656 2004.335938 2137.542969 C 2008.355469 2159.824219 2012.710938 2181.9375 2017.070312 2204.21875 C 2018.074219 2209.578125 2019.414062 2214.9375 2020.585938 2220.46875 C 2021.257812 2223.648438 2021.257812 2226.832031 2017.402344 2227.839844 C 2013.550781 2228.84375 2012.042969 2226.332031 2010.703125 2223.316406 C 2003.5 2207.566406 1995.960938 2191.820312 1988.925781 2176.074219 C 1981.554688 2159.988281 1973.847656 2144.074219 1967.648438 2127.488281 C 1951.230469 2083.933594 1935.484375 2039.875 1919.566406 1996.148438 C 1915.546875 1985.09375 1911.527344 1973.867188 1907.171875 1962.140625 C 1904.992188 1963.816406 1903.148438 1964.988281 1901.476562 1966.328125 C 1882.210938 1982.914062 1863.109375 1999.667969 1843.84375 2016.253906 C 1805.648438 2048.585938 1767.285156 2080.75 1729.425781 2113.25 C 1717.195312 2123.636719 1706.136719 2135.195312 1694.410156 2146.253906 C 1692.738281 2147.761719 1691.394531 2149.769531 1689.386719 2150.609375 C 1687.375 2151.445312 1684.695312 2151.277344 1683.523438 2150.105469 C 1682.351562 2149.101562 1682.351562 2146.085938 1682.683594 2144.242188 C 1683.019531 2142.734375 1684.527344 2141.5625 1685.53125 2140.222656 C 1714.851562 2105.042969 1744.167969 2069.691406 1773.484375 2034.511719 C 1799.285156 2003.519531 1825.25 1972.695312 1851.21875 1941.703125 C 1851.550781 1940.863281 1851.886719 1940.195312 1852.222656 1939.355469 C 1846.023438 1938.351562 1839.824219 1937.179688 1833.792969 1936.507812 C 1791.242188 1931.652344 1750.03125 1919.925781 1708.316406 1910.542969 C 1678.160156 1903.839844 1647.671875 1898.648438 1617.347656 1892.617188 C 1605.621094 1890.273438 1594.0625 1887.757812 1582.503906 1885.414062 C 1581.164062 1885.246094 1579.824219 1884.910156 1578.652344 1884.074219 C 1577.144531 1882.902344 1576.136719 1881.394531 1575.800781 1879.550781 C 1575.96875 1877.707031 1577.144531 1876.03125 1578.652344 1875.027344 C 1580.996094 1874.1875 1583.339844 1873.519531 1585.855469 1873.351562 C 1617.347656 1867.488281 1649.011719 1867.992188 1680.84375 1867.992188 C 1717.027344 1867.992188 1753.214844 1865.8125 1788.898438 1858.777344 C 1793.085938 1857.9375 1797.441406 1857.605469 1802.800781 1856.933594 C 1793.753906 1847.386719 1785.546875 1838.671875 1777.335938 1829.960938 C 1753.046875 1804.664062 1729.59375 1778.699219 1707.144531 1751.558594 C 1694.578125 1735.980469 1680.003906 1721.90625 1666.265625 1707.164062 C 1663.921875 1704.652344 1660.234375 1702.308594 1662.917969 1698.117188 C 1664.59375 1695.4375 1668.78125 1694.933594 1673.472656 1697.449219 C 1680.84375 1701.300781 1687.878906 1705.65625 1694.746094 1710.347656 C 1734.785156 1738.15625 1776.5 1762.953125 1817.878906 1788.414062 C 1820.390625 1789.921875 1823.074219 1791.097656 1826.757812 1792.769531 C 1826.253906 1789.753906 1825.921875 1787.914062 1825.585938 1786.070312 C 1810.339844 1716.546875 1797.609375 1646.519531 1787.390625 1575.992188 C 1782.867188 1543.992188 1779.515625 1511.828125 1775.828125 1479.832031 C 1774.65625 1469.78125 1774.320312 1459.394531 1773.652344 1449.339844 C 1773.316406 1447.664062 1773.316406 1446.15625 1773.652344 1444.816406 C 1774.824219 1440.796875 1779.515625 1439.457031 1782.027344 1442.808594 C 1783.703125 1445.320312 1784.707031 1448.167969 1785.378906 1451.183594 C 1797.941406 1495.410156 1809.503906 1539.972656 1823.40625 1584.03125 C 1841.667969 1641.996094 1861.769531 1699.292969 1881.035156 1756.753906 C 1881.707031 1758.761719 1882.542969 1760.941406 1883.550781 1763.621094 C 1885.894531 1762.28125 1888.074219 1761.277344 1890.082031 1759.9375 C 1936.488281 1729.445312 1982.726562 1698.789062 2029.296875 1668.464844 C 2062.972656 1646.351562 2096.980469 1624.742188 2130.988281 1602.964844 C 2133.164062 1601.289062 2135.511719 1599.949219 2138.191406 1598.941406 C 2140.703125 1598.105469 2143.382812 1598.273438 2145.730469 1599.277344 C 2148.242188 1600.785156 2148.242188 1604.304688 2146.566406 1606.816406 C 2144.054688 1611.171875 2141.207031 1615.191406 2138.023438 1619.046875 C 2117.753906 1641.160156 2097.648438 1663.777344 2076.539062 1685.21875 C 2051.578125 1710.683594 2025.949219 1735.308594 2000.484375 1760.4375 C 1992.105469 1768.648438 1983.898438 1777.191406 1975.523438 1785.566406 L 1976.359375 1787.074219 C 1983.5625 1785.902344 1990.933594 1785.066406 1997.96875 1783.726562 C 2024.441406 1778.699219 2051.078125 1776.855469 2077.878906 1775.515625 C 2096.980469 1774.511719 2115.910156 1772.667969 2135.007812 1771.664062 C 2164.828125 1770.15625 2194.648438 1768.480469 2224.464844 1767.976562 C 2236.695312 1767.808594 2249.09375 1770.65625 2261.488281 1772.164062 C 2264.671875 1772.5 2267.6875 1773.671875 2268.191406 1777.191406 C 2268.859375 1781.210938 2265.847656 1783.054688 2262.832031 1784.5625 C 2246.914062 1792.9375 2229.996094 1798.632812 2212.574219 1803.660156 C 2153.9375 1820.414062 2095.804688 1838.839844 2038.679688 1859.949219 C 2034.324219 1861.625 2029.96875 1863.46875 2025.613281 1865.308594 C 2024.441406 1865.980469 2023.433594 1866.816406 2022.429688 1867.65625 C 2024.773438 1870.839844 2026.785156 1874.023438 2029.128906 1877.039062 C 2044.039062 1897.476562 2059.453125 1917.914062 2074.027344 1938.6875 C 2099.15625 1974.371094 2124.117188 2010.222656 2151.257812 2044.398438 C 2162.816406 2058.804688 2174.042969 2073.546875 2185.433594 2088.121094 C 2186.773438 2089.460938 2187.777344 2091.136719 2188.449219 2092.980469 C 2188.949219 2094.820312 2189.285156 2097.671875 2188.113281 2099.011719 C 2186.941406 2100.351562 2184.261719 2100.519531 2182.25 2100.351562 C 2180.574219 2100.015625 2179.234375 2099.179688 2177.894531 2098.003906 C 2164.15625 2088.625 2150.253906 2079.578125 2136.851562 2069.859375 C 2130.148438 2064.667969 2123.617188 2058.972656 2117.417969 2053.109375 C 2095.636719 2033.507812 2073.859375 2013.90625 2052.25 1994.136719 C 2043.035156 1985.761719 2033.988281 1977.21875 2025.613281 1968.171875 C 2016.230469 1957.953125 2006.179688 1948.570312 1995.457031 1939.859375 C 1987.582031 1933.328125 1980.210938 1926.289062 1971.332031 1918.582031 Z M 1971.332031 1918.582031 " fill-opacity="1" fill-rule="nonzero"/><g fill="#ffffff" fill-opacity="1"><g transform="translate(949.577437, 1935.750004)"><g><path d="M 10.515625 22.4375 C 7.710938 21.5 6.3125 19.046875 6.3125 15.078125 C 6.3125 13.203125 6.660156 10.863281 7.359375 8.0625 L 4.90625 9.8125 L 0.703125 8.0625 C 2.335938 7.125 3.503906 5.957031 4.203125 4.5625 L 0 2.8125 L 4.203125 -5.953125 L 4.90625 -16.484375 L 7.015625 -16.125 L 6.3125 -39.625 L 12.625 -37.515625 L 13.328125 -40.328125 L 11.578125 -43.484375 L 21.734375 -56.09375 C 19.867188 -56.5625 18.9375 -57.96875 18.9375 -60.3125 C 18.9375 -61.476562 19.171875 -62.878906 19.640625 -64.515625 C 23.847656 -70.828125 27.585938 -73.984375 30.859375 -73.984375 L 31.203125 -73.984375 L 29.453125 -77.140625 L 31.203125 -84.5 L 40.671875 -94.3125 L 37.875 -100.625 C 40.675781 -112.3125 47.335938 -120.613281 57.859375 -125.53125 C 58.554688 -133.9375 59.253906 -139.894531 59.953125 -143.40625 L 64.171875 -141.65625 L 62.765625 -152.875 L 63.109375 -152.875 C 65.210938 -152.875 68.601562 -157.78125 73.28125 -167.59375 L 73.984375 -167.59375 C 76.554688 -167.59375 79.59375 -171.800781 83.09375 -180.21875 L 89.0625 -183.375 L 87.3125 -186.53125 C 87.769531 -188.164062 89.867188 -193.539062 93.609375 -202.65625 L 112.203125 -193.890625 L 125.875 -194.25 C 125.175781 -191.675781 122.957031 -190.390625 119.21875 -190.390625 C 116.644531 -190.390625 113.367188 -190.972656 109.390625 -192.140625 L 104.140625 -180.578125 L 106.234375 -180.21875 C 114.421875 -158.007812 120.617188 -146.207031 124.828125 -144.8125 L 168.296875 -66.625 C 171.097656 -65.6875 172.5 -62.992188 172.5 -58.546875 C 172.5 -56.210938 172.035156 -53.289062 171.109375 -49.78125 L 174.265625 -51.1875 L 176.359375 -50.84375 L 178.46875 -41.71875 L 177.765625 -39.625 C 176.359375 -38.457031 175.191406 -37.050781 174.265625 -35.40625 L 194.25 -4.90625 L 192.84375 -4.90625 C 184.664062 -4.90625 179.523438 -0.695312 177.421875 7.71875 L 171.109375 5.609375 L 173.5625 3.859375 L 174.265625 1.40625 C 171.453125 0.695312 167.710938 0.34375 163.046875 0.34375 C 155.328125 -27.46875 141.300781 -62.175781 120.96875 -103.78125 C 109.039062 -137.207031 100.507812 -157.78125 95.375 -165.5 L 39.96875 -55.046875 L 41.015625 -51.890625 L 43.125 -51.1875 C 74.914062 -56.5625 98.992188 -59.25 115.359375 -59.25 C 123.773438 -59.25 130.085938 -58.550781 134.296875 -57.15625 L 139.90625 -52.25 L 134.296875 -49.09375 L 133.9375 -46.28125 C 133.9375 -43.007812 135.570312 -40.789062 138.84375 -39.625 C 138.144531 -37.28125 137.503906 -35.054688 136.921875 -32.953125 C 136.335938 -30.847656 133.941406 -29.796875 129.734375 -29.796875 C 123.421875 -29.796875 113.132812 -31.550781 98.875 -35.0625 L 40.671875 -30.859375 L 38.921875 -34.015625 L 36.8125 -35.0625 L 23.84375 -28.75 L 21.734375 -29.109375 L 21.03125 -27 L 25.25 -25.59375 L 28.046875 -27 L 22.09375 12.96875 L 19.984375 12.265625 L 21.734375 15.421875 L 21.03125 18.234375 C 20.332031 20.566406 16.828125 21.96875 10.515625 22.4375 Z M 10.515625 22.4375 "/></g></g></g><g fill="#ffffff" fill-opacity="1"><g transform="translate(1159.250862, 1935.750004)"><g><path d="M 32.609375 10.515625 L 24.890625 10.515625 L 24.890625 5.953125 L 18.578125 5.953125 C 18.578125 8.992188 17.175781 10.515625 14.375 10.515625 C 13.207031 9.578125 12.15625 8.523438 11.21875 7.359375 L 12.625 -0.34375 L 9.46875 -3.5 L 9.46875 -6.3125 L 11.21875 -7.71875 C 9.8125 -20.800781 7.707031 -29.097656 4.90625 -32.609375 L 6.3125 -32.609375 L 3.15625 -46.640625 L 6.3125 -49.78125 L 1.75 -54.703125 L 1.75 -68.375 L 0 -74.6875 L 1.75 -79.234375 L 0 -84.15625 L 1.75 -84.15625 L 0 -85.546875 L 0 -94.671875 L 1.75 -96.078125 L 0 -97.828125 C 0 -98.992188 0.582031 -100.046875 1.75 -100.984375 L 0 -102.375 L 3.15625 -117.8125 L 1.75 -119.21875 L 1.75 -128.671875 C 1.988281 -134.054688 3.039062 -136.75 4.90625 -136.75 L 1.75 -145.515625 L 1.75 -153.578125 L 6.3125 -158.125 L 11.21875 -158.125 C 18.226562 -158.125 21.734375 -151 21.734375 -136.75 L 19.984375 -134.984375 C 19.984375 -134.054688 20.566406 -131.488281 21.734375 -127.28125 L 19.984375 -127.28125 L 21.734375 -125.53125 L 21.734375 -122.375 L 19.984375 -120.96875 L 21.734375 -110.453125 C 39.503906 -133.828125 57.503906 -145.515625 75.734375 -145.515625 L 77.484375 -147.265625 L 94.671875 -144.109375 C 95.609375 -145.046875 96.660156 -145.515625 97.828125 -145.515625 C 112.316406 -141.773438 128.796875 -131.601562 147.265625 -115 L 147.265625 -111.84375 C 149.367188 -111.84375 150.421875 -110.328125 150.421875 -107.296875 L 157.78125 -107.296875 L 157.78125 -99.234375 L 154.625 -96.078125 L 150.421875 -97.828125 C 150.421875 -95.722656 148.898438 -94.671875 145.859375 -94.671875 C 143.054688 -94.671875 129.03125 -106.003906 103.78125 -128.671875 C 96.070312 -132.878906 89.878906 -134.984375 85.203125 -134.984375 L 75.734375 -134.984375 L 65.21875 -131.828125 L 65.21875 -133.59375 C 57.96875 -130.78125 51.1875 -126.570312 44.875 -120.96875 C 36 -111.851562 28.285156 -107.296875 21.734375 -107.296875 L 21.734375 -89.765625 L 19.984375 -84.15625 L 23.140625 -65.21875 L 21.734375 -63.46875 C 24.078125 -63.46875 26.648438 -53.179688 29.453125 -32.609375 L 28.046875 -32.609375 C 31.085938 -20.222656 34.242188 -7.953125 37.515625 4.203125 C 35.648438 8.410156 34.015625 10.515625 32.609375 10.515625 Z M 32.609375 10.515625 "/></g></g></g><g fill="#ffffff" fill-opacity="1"><g transform="translate(1332.809936, 1935.750004)"><g><path d="M 131.484375 5.265625 L 128.328125 1.40625 L 124.828125 5.265625 L 119.90625 1.40625 L 117.8125 3.15625 L 113.25 3.15625 L 102.734375 -0.703125 L 104.140625 -2.109375 L 104.140625 -4.203125 L 102.734375 -4.203125 L 97.46875 -2.109375 C 85.550781 -16.597656 72.578125 -46.28125 58.546875 -91.15625 L 56.453125 -93.265625 L 54.703125 -93.265625 L 20.6875 -79.59375 L 20.6875 -81.703125 L 3.859375 -74.328125 L 0 -79.59375 L 0 -81.703125 C 0 -93.617188 18.234375 -104.953125 54.703125 -115.703125 L 51.546875 -139.90625 C 51.546875 -176.363281 53.878906 -194.59375 58.546875 -194.59375 L 59.953125 -194.59375 L 63.109375 -191.09375 L 63.109375 -166.890625 L 61.703125 -164.796875 L 63.109375 -158.828125 L 61.703125 -151.46875 L 63.109375 -145.859375 L 61.703125 -138.5 C 64.046875 -138.5 65.800781 -134.640625 66.96875 -126.921875 L 63.109375 -123.0625 C 66.617188 -123.0625 68.375 -120.609375 68.375 -115.703125 L 113.25 -125.171875 L 114.65625 -123.0625 C 114.65625 -125.632812 127.863281 -128.789062 154.28125 -132.53125 L 171.109375 -130.4375 L 171.109375 -126.921875 C 171.109375 -124.347656 168.769531 -123.0625 164.09375 -123.0625 L 162.6875 -117.453125 L 164.09375 -115.703125 C 162.457031 -113.367188 155.09375 -111.5 142 -110.09375 L 140.59375 -108 L 140.59375 -110.09375 L 114.65625 -104.140625 L 113.25 -106.234375 C 103.4375 -104.597656 96.539062 -101.441406 92.5625 -96.765625 C 91.164062 -96.765625 88.242188 -97.351562 83.796875 -98.53125 C 78.191406 -97.125 75.390625 -95.367188 75.390625 -93.265625 C 77.023438 -85.554688 78.773438 -77.957031 80.640625 -70.46875 L 82.046875 -70.46875 L 80.640625 -68.375 L 80.640625 -62.765625 L 82.046875 -64.859375 L 83.796875 -64.859375 L 94.3125 -45.9375 L 94.3125 -43.828125 L 90.46875 -43.828125 L 90.46875 -42.078125 C 93.96875 -42.078125 95.71875 -39.503906 95.71875 -34.359375 L 94.3125 -32.609375 C 96.65625 -32.609375 101.21875 -28.75 108 -21.03125 C 118.507812 -14.726562 129.375 -11.578125 140.59375 -11.578125 C 150.414062 -16.242188 157.78125 -25.238281 162.6875 -38.5625 L 181.625 -39.96875 L 183.03125 -38.5625 C 183.03125 -36.925781 182.5625 -35.523438 181.625 -34.359375 L 179.515625 -34.359375 L 181.625 -32.609375 L 181.625 -30.5 C 163.625 -9.226562 148.195312 1.40625 135.34375 1.40625 Z M 131.484375 5.265625 "/></g></g></g><g fill="#ffffff" fill-opacity="1"><g transform="translate(1531.613941, 1935.750004)"><g><path d="M 51.546875 -140.25 L 44.171875 -145.515625 L 34.359375 -145.515625 L 31.5625 -143.0625 L 29.453125 -143.0625 L 27 -145.515625 L 27 -147.609375 L 17.53125 -143.0625 C 17.53125 -147.96875 14.140625 -150.421875 7.359375 -150.421875 C 7.359375 -156.960938 4.90625 -160.234375 0 -160.234375 L 0 -172.5 C 4.207031 -180.445312 11.570312 -184.421875 22.09375 -184.421875 C 29.800781 -184.421875 39.617188 -175.539062 51.546875 -157.78125 L 51.546875 -152.875 C 56.453125 -152.875 58.90625 -151.117188 58.90625 -147.609375 Z M 41.71875 15.78125 L 38.921875 13.328125 L 38.921875 11.21875 L 41.71875 8.421875 L 44.171875 8.421875 L 41.71875 5.953125 L 41.71875 -1.40625 L 44.171875 -3.5 L 36.8125 -15.78125 L 41.71875 -45.234375 L 36.8125 -49.78125 C 36.8125 -51.65625 39.265625 -59.957031 44.171875 -74.6875 L 41.71875 -77.140625 L 41.71875 -79.234375 L 44.171875 -82.046875 L 41.71875 -91.515625 C 41.71875 -102.960938 46.628906 -112.078125 56.453125 -118.859375 L 63.8125 -118.859375 C 61.945312 -94.316406 61.015625 -79.59375 61.015625 -74.6875 L 58.90625 -71.875 L 63.8125 -32.953125 L 61.015625 -32.953125 L 63.8125 -30.5 C 61.945312 -11.101562 61.015625 1.046875 61.015625 5.953125 L 56.453125 11.21875 L 53.640625 8.421875 C 53.640625 11.222656 49.664062 13.675781 41.71875 15.78125 Z M 41.71875 15.78125 "/></g></g></g><g fill="#ffffff" fill-opacity="1"><g transform="translate(1610.855026, 1935.750004)"><g><path d="M 48.390625 11.921875 L 24.890625 8.421875 L 26.296875 3.5 L 24.890625 0.34375 L 28.046875 0.34375 L 28.046875 -2.109375 L 22.09375 -2.109375 L 17.53125 0.34375 L 16.484375 0.34375 L 16.484375 -4.203125 L 18.9375 -8.0625 L 18.9375 -9.109375 L 10.171875 -10.515625 L 10.171875 -9.109375 C 11.566406 -7.941406 13.082031 -6.890625 14.71875 -5.953125 C 13.789062 -4.785156 12.742188 -4.203125 11.578125 -4.203125 L 7.359375 -8.0625 L 9.109375 -9.109375 L 5.953125 -21.03125 L 11.578125 -23.140625 C 13.671875 -23.140625 19.628906 -18.929688 29.453125 -10.515625 C 32.960938 -10.515625 36.816406 -8.992188 41.015625 -5.953125 C 41.953125 -6.421875 43.003906 -6.773438 44.171875 -7.015625 C 44.640625 -6.304688 45.34375 -5.953125 46.28125 -5.953125 L 46.984375 -5.953125 C 47.921875 -6.421875 48.972656 -6.773438 50.140625 -7.015625 L 54.34375 -4.203125 L 71.53125 -8.0625 C 72 -7.59375 72.582031 -7.242188 73.28125 -7.015625 C 73.28125 -8.648438 76.785156 -9.816406 83.796875 -10.515625 L 85.203125 -9.109375 C 85.203125 -10.515625 90.460938 -12.617188 100.984375 -15.421875 C 107.992188 -18.929688 111.5 -28.164062 111.5 -43.125 L 105.890625 -52.59375 C 104.722656 -51.894531 103.671875 -51.546875 102.734375 -51.546875 L 100.984375 -56.453125 L 91.15625 -56.453125 L 86.25 -58.546875 C 85.78125 -57.847656 85.195312 -57.5 84.5 -57.5 L 83.796875 -57.5 L 83.796875 -59.953125 L 86.25 -59.953125 L 86.25 -61.015625 L 83.796875 -61.015625 L 83.796875 -62.0625 L 82.046875 -61.015625 C 73.628906 -61.710938 66.847656 -63.695312 61.703125 -66.96875 L 61.703125 -68.015625 C 56.796875 -67.316406 51.890625 -66.96875 46.984375 -66.96875 L 33.65625 -72.578125 C 32.71875 -71.878906 31.664062 -71.53125 30.5 -71.53125 C 24.894531 -72.695312 22.09375 -74.332031 22.09375 -76.4375 L 23.84375 -77.484375 L 23.84375 -78.546875 L 16.484375 -77.484375 C 7.367188 -84.734375 2.457031 -91.046875 1.75 -96.421875 L 3.15625 -96.421875 L 0 -103.78125 C 4.90625 -129.257812 11.800781 -142 20.6875 -142 C 20.6875 -146.90625 31.90625 -154.503906 54.34375 -164.796875 L 57.5 -164.796875 C 57.738281 -164.328125 58.085938 -163.972656 58.546875 -163.734375 L 61.703125 -165.84375 L 63.109375 -164.796875 C 64.273438 -164.796875 66.726562 -165.144531 70.46875 -165.84375 L 74.6875 -163.734375 L 78.890625 -164.796875 C 91.515625 -164.796875 99.929688 -159.648438 104.140625 -149.359375 C 109.515625 -147.722656 115.820312 -136.035156 123.0625 -114.296875 L 123.0625 -110.453125 C 116.050781 -110.453125 110.675781 -114.890625 106.9375 -123.765625 L 104.140625 -130.4375 L 105.890625 -131.484375 C 99.578125 -136.859375 94.664062 -143.171875 91.15625 -150.421875 L 77.84375 -153.21875 L 67.3125 -153.21875 L 61.703125 -151.46875 C 60.773438 -152.40625 59.722656 -152.988281 58.546875 -153.21875 C 28.398438 -144.101562 13.328125 -129.847656 13.328125 -110.453125 C 14.722656 -110.453125 17.175781 -105.773438 20.6875 -96.421875 L 22.09375 -95.375 L 20.6875 -94.3125 L 78.890625 -79.9375 C 94.785156 -77.601562 102.734375 -74.097656 102.734375 -69.421875 L 105.890625 -69.421875 C 106.585938 -70.117188 107.40625 -70.46875 108.34375 -70.46875 C 108.34375 -69.070312 110.796875 -67.90625 115.703125 -66.96875 C 118.972656 -59.957031 121.425781 -56.453125 123.0625 -56.453125 C 122.132812 -55.753906 121.671875 -54.816406 121.671875 -53.640625 C 121.671875 -52.242188 123.1875 -51.546875 126.21875 -51.546875 L 127.28125 -50.484375 L 127.28125 -42.078125 L 123.0625 -37.515625 L 126.21875 -35.40625 L 126.21875 -31.5625 C 126.21875 -29.925781 124.703125 -29.109375 121.671875 -29.109375 C 122.597656 -27.929688 123.648438 -26.878906 124.828125 -25.953125 L 121.671875 -22.09375 L 123.0625 -21.03125 C 120.726562 -20.800781 118.273438 -17.648438 115.703125 -11.578125 L 110.09375 -9.109375 L 110.09375 -2.109375 C 106.125 -2.109375 98.175781 0.695312 86.25 6.3125 L 67.3125 10.875 L 65.921875 9.8125 Z M 48.390625 11.921875 "/></g></g></g><g fill="#ffffff" fill-opacity="1"><g transform="translate(1753.559184, 1935.750004)"><g><path d="M 42.078125 3.859375 L 39.96875 3.859375 C 14.726562 -5.253906 2.109375 -18.578125 2.109375 -36.109375 L 4.203125 -38.21875 C 4.203125 -39.625 2.800781 -44.53125 0 -52.9375 L 4.203125 -61.359375 L 2.109375 -63.46875 L 2.109375 -67.671875 L 6.3125 -67.671875 L 2.109375 -73.984375 L 8.421875 -76.078125 L 4.203125 -82.390625 L 10.515625 -88.703125 L 8.421875 -90.8125 L 8.421875 -97.125 C 12.617188 -97.125 16.125 -100.628906 18.9375 -107.640625 C 33.425781 -118.859375 42.539062 -124.46875 46.28125 -124.46875 L 54.703125 -122.375 L 61.015625 -124.46875 L 61.015625 -122.375 L 63.109375 -124.46875 L 73.625 -124.46875 C 81.101562 -124.46875 89.519531 -107.640625 98.875 -73.984375 L 107.296875 -71.875 L 109.390625 -73.984375 L 113.609375 -61.359375 C 118.515625 -61.359375 135.34375 -50.835938 164.09375 -29.796875 C 178.113281 -24.191406 185.125 -18.582031 185.125 -12.96875 C 176.476562 -5.957031 168.066406 -2.453125 159.890625 -2.453125 L 157.78125 -8.765625 L 151.46875 -4.5625 C 150.0625 -10.632812 143.050781 -15.539062 130.4375 -19.28125 C 130.4375 -22.550781 119.914062 -32.367188 98.875 -48.734375 C 97.46875 -33.304688 89.753906 -20.6875 75.734375 -10.875 C 70.585938 -3.851562 62.171875 -0.34375 50.484375 -0.34375 L 48.390625 -2.453125 Z M 52.59375 -12.96875 C 53.757812 -14.375 55.160156 -15.078125 56.796875 -15.078125 C 55.398438 -16.242188 54.703125 -17.644531 54.703125 -19.28125 C 61.710938 -29.101562 65.914062 -41.023438 67.3125 -55.046875 L 73.625 -61.359375 L 69.421875 -80.296875 L 71.53125 -80.296875 L 67.3125 -88.703125 L 71.53125 -92.921875 C 67.320312 -92.921875 65.21875 -97.125 65.21875 -105.53125 L 54.703125 -105.53125 C 35.066406 -99.6875 25.25 -91.972656 25.25 -82.390625 L 16.828125 -59.25 C 22.203125 -37.507812 27.8125 -24.890625 33.65625 -21.390625 L 46.28125 -12.96875 Z M 176.71875 1.75 L 172.5 1.75 L 172.5 -4.5625 L 176.71875 -0.34375 Z M 176.71875 1.75 "/></g></g></g><g fill="#ffffff" fill-opacity="1"><g transform="translate(1954.466984, 1935.750004)"><g><path d="M 159.890625 8.421875 L 153.578125 8.421875 C 153.578125 0.00390625 150.070312 -4.203125 143.0625 -4.203125 L 143.0625 -6.3125 C 144.457031 -7.476562 145.15625 -8.878906 145.15625 -10.515625 L 138.84375 -16.828125 L 145.15625 -29.453125 L 143.0625 -39.96875 L 147.265625 -44.171875 L 145.15625 -50.484375 L 147.265625 -52.59375 C 147.265625 -90.457031 134.640625 -115 109.390625 -126.21875 L 100.984375 -130.4375 C 95.367188 -129.5 89.757812 -125.988281 84.15625 -119.90625 C 85.550781 -118.738281 86.25 -117.335938 86.25 -115.703125 C 86.25 -113.597656 79.238281 -108.691406 65.21875 -100.984375 C 66.613281 -99.816406 67.3125 -98.410156 67.3125 -96.765625 C 47.6875 -71.523438 37.875 -44.878906 37.875 -16.828125 L 25.25 -12.625 L 16.828125 -12.625 C 13.785156 -14.019531 8.878906 -25.238281 2.109375 -46.28125 L 8.421875 -56.796875 L 4.203125 -65.21875 L 6.3125 -65.21875 C 4.675781 -76.4375 2.570312 -82.046875 0 -82.046875 L 6.3125 -92.5625 L 4.203125 -94.671875 L 4.203125 -100.984375 L 6.3125 -103.078125 L 2.109375 -124.125 C 9.117188 -130.4375 12.625 -136.046875 12.625 -140.953125 L 21.03125 -140.953125 L 25.25 -136.75 C 24.3125 -126.925781 22.90625 -122.015625 21.03125 -122.015625 L 23.140625 -119.90625 L 23.140625 -96.765625 L 21.03125 -88.359375 L 23.140625 -77.84375 L 27.34375 -77.84375 C 27.34375 -95.132812 39.265625 -113.363281 63.109375 -132.53125 C 67.316406 -132.53125 69.421875 -134.632812 69.421875 -138.84375 L 105.1875 -147.265625 L 105.1875 -145.15625 L 107.296875 -147.265625 C 120.847656 -147.265625 136.972656 -133.238281 155.671875 -105.1875 C 159.878906 -89.757812 161.984375 -81.34375 161.984375 -79.9375 L 157.78125 -79.9375 L 164.09375 -71.53125 L 164.09375 -56.796875 L 168.296875 -44.171875 L 161.984375 -8.421875 L 164.09375 2.109375 C 161.289062 2.109375 159.890625 4.210938 159.890625 8.421875 Z M 159.890625 8.421875 "/></g></g></g><g fill="#ffffff" fill-opacity="1"><g transform="translate(2138.544732, 1935.750004)"><g><path d="M 13.671875 0.703125 L 12.265625 0.703125 L 0 -11.578125 L 0 -18.234375 C 4.207031 -26.410156 16.363281 -30.5 36.46875 -30.5 L 39.96875 -25.25 L 39.96875 -19.984375 C 39.96875 -6.191406 31.203125 0.703125 13.671875 0.703125 Z M 13.671875 0.703125 "/></g></g></g></svg>